v 0.600000 0.775880 -0.600000
v 0.600000 0.600000 -0.775880
v 0.775880 0.600000 -0.600000
v 0.600000 0.200000 -0.960788
v 0.960788 0.200000 -0.600000
v 0.600000 -0.200000 -0.960788
v 0.960788 -0.200000 -0.600000
v 1.000000 -0.200000 -0.530196
v 1.000000 0.200000 -0.530196
v 1.115109 -0.200000 -0.200000
v 1.115109 0.200000 -0.200000
v 1.000000 -0.530196 -0.200000
v 1.000000 -0.530196 0.200000
v 1.115109 -0.200000 0.200000
v 1.000000 -0.200000 0.530196
v 1.000000 0.200000 0.530196
v 1.115109 0.200000 0.200000
v 1.000000 0.530196 0.200000
v 1.000000 0.530196 -0.200000
v 0.960788 0.600000 0.200000
v 0.960788 0.600000 -0.200000
v 0.600000 0.960788 0.200000
v 0.600000 0.960788 -0.200000
v 0.530196 1.000000 0.200000
v 0.530196 1.000000 -0.200000
v 0.200000 1.115109 0.200000
v 0.200000 1.115109 -0.200000
v 0.200000 1.000000 0.530196
v -0.200000 1.115109 0.200000
v -0.200000 1.000000 0.530196
v -0.200000 0.960788 0.600000
v 0.200000 0.960788 0.600000
v 0.200000 0.600000 0.960788
v -0.200000 0.600000 0.960788
v -0.200000 0.530196 1.000000
v 0.200000 0.530196 1.000000
v 0.200000 0.200000 1.115109
v -0.200000 0.200000 1.115109
v -0.200000 -0.200000 1.115109
v 0.200000 -0.200000 1.115109
v -0.200000 -0.530196 1.000000
v 0.200000 -0.530196 1.000000
v 0.200000 -0.600000 0.960788
v -0.200000 -0.600000 0.960788
v -0.200000 -0.960788 0.600000
v 0.200000 -0.960788 0.600000
v 0.200000 -1.000000 0.530196
v -0.200000 -1.000000 0.530196
v -0.200000 -1.115109 0.200000
v 0.200000 -1.115109 0.200000
v 0.200000 -1.115109 -0.200000
v -0.200000 -1.115109 -0.200000
v 0.200000 -1.000000 -0.530196
v -0.200000 -1.000000 -0.530196
v -0.200000 -0.960788 -0.600000
v 0.200000 -0.960788 -0.600000
v 0.200000 -0.600000 -0.960788
v -0.200000 -0.600000 -0.960788
v -0.200000 -0.530196 -1.000000
v 0.200000 -0.530196 -1.000000
v 0.200000 -0.200000 -1.115109
v -0.200000 -0.200000 -1.115109
v 0.200000 0.200000 -1.115109
v -0.200000 0.200000 -1.115109
v -0.200000 0.530196 -1.000000
v 0.200000 0.530196 -1.000000
v 0.200000 0.600000 -0.960788
v -0.200000 0.600000 -0.960788
v -0.200000 0.960788 -0.600000
v 0.200000 0.960788 -0.600000
v 0.200000 1.000000 -0.530196
v -0.200000 1.000000 -0.530196
v -0.200000 1.115109 -0.200000
v -0.530196 1.000000 -0.200000
v -0.530196 1.000000 0.200000
v -0.600000 0.960788 0.200000
v -0.600000 0.960788 -0.200000
v -0.960788 0.600000 0.200000
v -0.960788 0.600000 -0.200000
v -1.000000 0.530196 0.200000
v -1.000000 0.530196 -0.200000
v -1.000000 0.200000 -0.530196
v -0.960788 0.200000 -0.600000
v -0.775880 0.600000 -0.600000
v -1.000000 -0.200000 -0.530196
v -0.960788 -0.200000 -0.600000
v -1.000000 -0.530196 -0.200000
v -0.960788 -0.600000 -0.200000
v -0.775880 -0.600000 -0.600000
v -0.600000 -0.600000 -0.775880
v -0.600000 -0.200000 -0.960788
v -0.600000 -0.775880 -0.600000
v -1.000000 -0.530196 0.200000
v -0.960788 -0.600000 0.200000
v -0.600000 -0.960788 0.200000
v -0.600000 -0.960788 -0.200000
v -0.600000 -0.775880 0.600000
v -0.775880 -0.600000 0.600000
v -0.530196 -1.000000 0.200000
v -0.530196 -1.000000 -0.200000
v -1.000000 -0.200000 0.530196
v -0.960788 -0.200000 0.600000
v -1.000000 0.200000 0.530196
v -0.960788 0.200000 0.600000
v -0.600000 -0.200000 0.960788
v -0.600000 0.200000 0.960788
v -0.530196 0.200000 1.000000
v -0.530196 -0.200000 1.000000
v -1.115109 -0.200000 0.200000
v -1.115109 0.200000 0.200000
v -1.115109 -0.200000 -0.200000
v -1.115109 0.200000 -0.200000
v -0.600000 -0.600000 0.775880
v -0.600000 0.200000 -0.960788
v -0.530196 -0.200000 -1.000000
v -0.530196 0.200000 -1.000000
v -0.600000 0.600000 -0.775880
v -0.600000 0.775880 -0.600000
v -0.775880 0.600000 0.600000
v -0.600000 0.775880 0.600000
v -0.600000 0.600000 0.775880
v 0.530196 -0.200000 -1.000000
v 0.530196 0.200000 -1.000000
v 0.600000 -0.775880 -0.600000
v 0.600000 -0.600000 -0.775880
v 0.775880 -0.600000 -0.600000
v 0.600000 -0.960788 -0.200000
v 0.960788 -0.600000 -0.200000
v 0.600000 -0.960788 0.200000
v 0.960788 -0.600000 0.200000
v 0.600000 -0.775880 0.600000
v 0.775880 -0.600000 0.600000
v 0.600000 -0.600000 0.775880
v 0.600000 -0.200000 0.960788
v 0.960788 -0.200000 0.600000
v 0.600000 0.200000 0.960788
v 0.960788 0.200000 0.600000
v 0.600000 0.600000 0.775880
v 0.775880 0.600000 0.600000
v 0.600000 0.775880 0.600000
v 0.530196 -0.200000 1.000000
v 0.530196 0.200000 1.000000
v 0.530196 -1.000000 -0.200000
v 0.530196 -1.000000 0.200000
vn 0.7106 0.4972 -0.4978
vn 0.4986 0.4986 -0.7091
vn 0.4972 0.7106 -0.4978
vn 0.5867 0.1755 -0.7906
vn 0.7943 0.1867 -0.5781
vn 0.5781 -0.1867 -0.7943
vn 0.8928 -0.1842 -0.4112
vn 0.7906 -0.1755 -0.5867
vn 0.9734 0.1621 -0.1621
vn 0.8847 0.2058 -0.4182
vn 0.9734 -0.1621 -0.1621
vn 0.8928 -0.4112 -0.1842
vn 0.8927 -0.4106 0.1857
vn 0.9734 -0.1621 0.1621
vn 0.8847 -0.2058 0.4182
vn 0.9734 0.1621 0.1621
vn 0.8928 0.1842 0.4112
vn 0.8928 0.4112 0.1842
vn 0.7906 0.5867 -0.1755
vn 0.8927 0.4106 -0.1857
vn 0.5774 0.7945 0.1882
vn 0.7906 0.5867 0.1755
vn 0.4106 0.8927 -0.1857
vn 0.5867 0.7906 -0.1755
vn 0.1621 0.9734 0.1621
vn 0.4182 0.8847 0.2058
vn 0.2058 0.8847 0.4182
vn -0.1621 0.9734 0.1621
vn -0.1842 0.8928 0.4112
vn -0.1755 0.7906 0.5867
vn 0.1882 0.7945 0.5774
vn 0.1755 0.5867 0.7906
vn -0.1755 0.5867 0.7906
vn -0.1857 0.4106 0.8927
vn 0.1857 0.4106 0.8927
vn 0.1621 0.1621 0.9734
vn -0.1621 0.1621 0.9734
vn -0.1621 -0.1621 0.9734
vn 0.1621 -0.1621 0.9734
vn -0.1842 -0.4112 0.8928
vn 0.1842 -0.4112 0.8928
vn 0.1755 -0.5867 0.7906
vn -0.1755 -0.5867 0.7906
vn -0.1755 -0.7906 0.5867
vn 0.1867 -0.7943 0.5781
vn 0.2058 -0.8847 0.4182
vn -0.1842 -0.8928 0.4112
vn -0.1621 -0.9734 0.1621
vn 0.1621 -0.9734 0.1621
vn 0.1621 -0.9734 -0.1621
vn -0.1621 -0.9734 -0.1621
vn 0.2058 -0.8847 -0.4182
vn -0.2058 -0.8847 -0.4182
vn -0.1882 -0.7945 -0.5774
vn 0.1882 -0.7945 -0.5774
vn 0.1755 -0.5867 -0.7906
vn -0.1755 -0.5867 -0.7906
vn -0.1842 -0.4112 -0.8928
vn 0.1857 -0.4106 -0.8927
vn 0.1621 -0.1621 -0.9734
vn -0.1621 -0.1621 -0.9734
vn 0.1621 0.1621 -0.9734
vn -0.1621 0.1621 -0.9734
vn -0.2058 0.4182 -0.8847
vn 0.1842 0.4112 -0.8928
vn 0.1755 0.5867 -0.7906
vn -0.1882 0.5774 -0.7945
vn -0.1755 0.7906 -0.5867
vn 0.1867 0.7943 -0.5781
vn 0.2058 0.8847 -0.4182
vn -0.1857 0.8927 -0.4106
vn -0.1621 0.9734 -0.1621
vn 0.1621 0.9734 -0.1621
vn -0.4182 0.8847 -0.2058
vn -0.5867 0.7906 0.1755
vn -0.4112 0.8928 0.1842
vn -0.7906 0.5867 -0.1755
vn -0.5781 0.7943 -0.1867
vn -0.8927 0.4106 0.1857
vn -0.7906 0.5867 0.1755
vn -0.7091 0.4986 -0.4986
vn -0.8928 0.1842 -0.4112
vn -0.8928 0.4112 -0.1842
vn -0.7906 0.1755 -0.5867
vn -0.8847 -0.2058 -0.4182
vn -0.7106 -0.4972 -0.4978
vn -0.8927 -0.4106 -0.1857
vn -0.7943 -0.1867 -0.5781
vn -0.4986 -0.4986 -0.7091
vn -0.4960 -0.7127 -0.4960
vn -0.7906 -0.5867 -0.1755
vn -0.8928 -0.4112 0.1842
vn -0.5867 -0.7906 0.1755
vn -0.7906 -0.5867 0.1755
vn -0.4986 -0.7091 0.4986
vn -0.7091 -0.4986 0.4986
vn -0.4182 -0.8847 -0.2058
vn -0.5774 -0.7945 -0.1882
vn -0.8928 -0.1842 0.4112
vn -0.7943 0.1867 0.5781
vn -0.7906 -0.1755 0.5867
vn -0.5867 -0.1755 0.7906
vn -0.5781 0.1867 0.7943
vn -0.4182 0.2058 0.8847
vn -0.4112 -0.1842 0.8928
vn -0.9734 0.1621 0.1621
vn -0.8847 0.2058 0.4182
vn -0.9734 0.1621 -0.1621
vn -0.9734 -0.1621 0.1621
vn -0.4986 -0.4986 0.7091
vn -0.9734 -0.1621 -0.1621
vn -0.5867 -0.1755 -0.7906
vn -0.4182 0.2058 -0.8847
vn -0.5774 0.1882 -0.7945
vn -0.4960 0.4960 -0.7127
vn -0.4978 0.7106 -0.4972
vn -0.7106 0.4972 0.4978
vn -0.4986 0.7091 0.4986
vn -0.4978 0.4972 0.7106
vn 0.4112 0.1842 -0.8928
vn -0.4112 -0.1842 -0.8928
vn 0.4182 -0.2058 -0.8847
vn 0.4978 -0.4972 -0.7106
vn 0.7091 -0.4986 -0.4986
vn 0.4960 -0.7127 -0.4960
vn 0.5774 -0.7945 -0.1882
vn 0.7906 -0.5867 -0.1755
vn 0.5867 -0.7906 0.1755
vn 0.7906 -0.5867 0.1755
vn 0.4972 -0.7106 0.4978
vn 0.7106 -0.4972 0.4978
vn 0.4986 -0.4986 0.7091
vn 0.7943 -0.1867 0.5781
vn 0.7906 0.1755 0.5867
vn 0.5867 -0.1755 0.7906
vn 0.7091 0.4986 0.4986
vn 0.5781 0.1867 0.7943
vn 0.4978 0.4972 0.7106
vn 0.4960 0.7127 0.4960
vn 0.4182 0.2058 0.8847
vn 0.4182 -0.8847 -0.2058
vn 0.4106 -0.8927 0.1857
vn -0.4112 -0.8928 0.1842
vn 0.4112 -0.1842 0.8928
f 3/2/1 2/2/2 1/2/3
f 3/2/1 4/2/4 2/2/2
f 5/2/5 6/2/6 4/2/4
f 5/2/5 8/2/7 7/2/8
f 11/2/9 8/2/7 9/2/10
f 8/2/7 10/2/11 12/2/12
f 10/2/11 13/2/13 12/2/12
f 14/2/14 15/2/15 13/2/13
f 17/2/16 15/2/15 14/2/14
f 16/2/17 17/2/16 18/2/18
f 11/2/9 18/2/18 17/2/16
f 21/2/19 18/2/18 19/2/20
f 21/2/19 22/2/21 20/2/22
f 25/2/23 22/2/21 23/2/24
f 25/2/23 26/2/25 24/2/26
f 28/2/27 24/2/26 26/2/25
f 28/2/27 29/2/28 30/2/29
f 28/2/27 31/2/30 32/2/31
f 33/2/32 31/2/30 34/2/33
f 33/2/32 35/2/34 36/2/35
f 37/2/36 35/2/34 38/2/37
f 37/2/36 39/2/38 40/2/39
f 40/2/39 41/2/40 42/2/41
f 43/2/42 41/2/40 44/2/43
f 43/2/42 45/2/44 46/2/45
f 47/2/46 45/2/44 48/2/47
f 47/2/46 49/2/48 50/2/49
f 51/2/50 49/2/48 52/2/51
f 53/2/52 52/2/51 54/2/53
f 53/2/52 55/2/54 56/2/55
f 57/2/56 55/2/54 58/2/57
f 57/2/56 59/2/58 60/2/59
f 61/2/60 59/2/58 62/2/61
f 63/2/62 62/2/61 64/2/63
f 63/2/62 65/2/64 66/2/65
f 67/2/66 65/2/64 68/2/67
f 67/2/66 69/2/68 70/2/69
f 71/2/70 69/2/68 72/2/71
f 71/2/70 73/2/72 27/2/73
f 72/2/71 74/2/74 73/2/72
f 74/2/74 29/2/28 73/2/72
f 74/2/74 76/2/75 75/2/76
f 79/2/77 76/2/75 77/2/78
f 79/2/77 80/2/79 78/2/80
f 84/2/81 82/2/82 81/2/83
f 79/2/77 84/2/81 81/2/83
f 83/2/84 85/2/85 82/2/82
f 89/2/86 87/2/87 86/2/88
f 85/2/85 86/2/88 87/2/87
f 86/2/88 90/2/89 89/2/86
f 89/2/86 90/2/89 92/2/90
f 88/2/91 93/2/92 87/2/87
f 88/2/91 95/2/93 94/2/94
f 94/2/94 97/2/95 98/2/96
f 100/2/97 95/2/93 96/2/98
f 98/2/96 101/2/99 93/2/92
f 94/2/94 98/2/96 93/2/92
f 104/2/100 101/2/99 102/2/101
f 104/2/100 105/2/102 106/2/103
f 107/2/104 105/2/102 108/2/105
f 110/2/106 101/2/99 103/2/107
f 110/2/106 103/2/107 80/2/79
f 112/2/108 109/2/109 110/2/106
f 102/2/101 113/2/110 105/2/102
f 101/2/99 109/2/109 93/2/92
f 111/2/111 93/2/92 109/2/109
f 111/2/111 85/2/85 87/2/87
f 83/2/84 91/2/112 86/2/88
f 116/2/113 91/2/112 114/2/114
f 112/2/108 85/2/85 111/2/111
f 84/2/81 114/2/114 83/2/84
f 117/2/115 84/2/81 118/2/116
f 119/2/117 80/2/79 104/2/100
f 103/2/107 104/2/100 80/2/79
f 112/2/108 80/2/79 81/2/83
f 84/2/81 77/2/78 118/2/116
f 78/2/80 120/2/118 76/2/75
f 119/2/117 121/2/119 120/2/118
f 64/2/63 116/2/113 65/2/64
f 123/2/120 61/2/60 63/2/62
f 116/2/113 62/2/61 115/2/121
f 61/2/60 122/2/122 60/2/59
f 115/2/121 62/2/61 59/2/58
f 125/2/123 56/2/55 57/2/56
f 125/2/123 126/2/124 124/2/125
f 126/2/124 127/2/126 124/2/125
f 128/2/127 129/2/128 127/2/126
f 130/2/129 131/2/130 129/2/128
f 132/2/131 133/2/132 131/2/130
f 135/2/133 133/2/132 132/2/131
f 137/2/134 134/2/135 135/2/133
f 139/2/136 136/2/137 137/2/134
f 138/2/138 139/2/136 140/2/139
f 142/2/140 134/2/135 136/2/137
f 143/2/141 129/2/128 144/2/142
f 58/2/57 92/2/90 90/2/89
f 143/2/141 56/2/55 127/2/126
f 124/2/125 127/2/126 56/2/55
f 54/2/53 96/2/98 55/2/54
f 92/2/90 55/2/54 96/2/98
f 100/2/97 54/2/53 52/2/51
f 143/2/141 50/2/49 51/2/50
f 100/2/97 49/2/48 99/2/143
f 144/2/142 47/2/46 50/2/49
f 48/2/47 99/2/143 49/2/48
f 144/2/142 131/2/130 46/2/45
f 47/2/46 144/2/142 46/2/45
f 48/2/47 97/2/95 99/2/143
f 95/2/93 99/2/143 97/2/95
f 44/2/43 97/2/95 45/2/44
f 133/2/132 141/2/144 42/2/41
f 43/2/42 133/2/132 42/2/41
f 108/2/105 113/2/110 41/2/40
f 44/2/43 41/2/40 113/2/110
f 141/2/144 40/2/39 42/2/41
f 39/2/38 108/2/105 41/2/40
f 142/2/140 40/2/39 141/2/144
f 107/2/104 39/2/38 38/2/37
f 107/2/104 38/2/37 35/2/34
f 138/2/138 36/2/35 136/2/137
f 142/2/140 136/2/137 36/2/35
f 35/2/34 121/2/119 106/2/103
f 107/2/104 35/2/34 106/2/103
f 138/2/138 32/2/31 33/2/32
f 34/2/33 120/2/118 121/2/119
f 75/2/76 30/2/29 29/2/28
f 27/2/73 29/2/28 26/2/25
f 25/2/23 1/2/3 70/2/69
f 71/2/70 25/2/23 70/2/69
f 137/2/134 15/2/15 16/2/17
f 128/2/127 13/2/13 130/2/129
f 11/2/9 14/2/14 10/2/11
f 123/2/120 6/2/6 122/2/122
f 3/2/1 19/2/20 5/2/5
f 9/2/10 5/2/5 19/2/20
f 2/2/2 123/2/120 66/2/65
f 67/2/66 2/2/2 66/2/65
f 7/2/8 125/2/123 6/2/6
f 3/2/1 23/2/24 21/2/19
f 11/2/9 9/2/10 19/2/20
f 126/2/124 8/2/7 12/2/12
f 128/2/127 126/2/124 12/2/12
f 20/2/22 140/2/139 139/2/136
f 139/2/136 16/2/17 18/2/18
f 20/2/22 139/2/136 18/2/18
f 132/2/131 13/2/13 135/2/133
f 15/2/15 135/2/133 13/2/13
f 2/2/2 70/2/69 1/2/3
f 123/2/120 63/2/62 66/2/65
f 125/2/123 60/2/59 6/2/6
f 122/2/122 6/2/6 60/2/59
f 25/2/23 71/2/70 27/2/73
f 53/2/52 143/2/141 51/2/50
f 24/2/26 32/2/31 22/2/21
f 140/2/139 22/2/21 32/2/31
f 37/2/36 142/2/140 36/2/35
f 133/2/132 46/2/45 131/2/130
f 68/2/67 118/2/116 69/2/68
f 65/2/64 114/2/114 68/2/67
f 117/2/115 68/2/67 114/2/114
f 59/2/58 90/2/89 115/2/121
f 91/2/112 115/2/121 90/2/89
f 72/2/71 118/2/116 77/2/78
f 74/2/74 72/2/71 77/2/78
f 82/2/82 112/2/108 81/2/83
f 89/2/86 96/2/98 88/2/91
f 75/2/76 120/2/118 30/2/29
f 31/2/30 30/2/29 120/2/118
f 119/2/117 106/2/103 121/2/119
f 113/2/110 98/2/96 97/2/95
f 3/2/1 5/2/5 4/2/4
f 5/2/5 7/2/8 6/2/6
f 5/2/5 9/2/10 8/2/7
f 11/2/9 10/2/11 8/2/7
f 10/2/11 14/2/14 13/2/13
f 17/2/16 16/2/17 15/2/15
f 11/2/9 19/2/20 18/2/18
f 21/2/19 20/2/22 18/2/18
f 21/2/19 23/2/24 22/2/21
f 25/2/23 24/2/26 22/2/21
f 25/2/23 27/2/73 26/2/25
f 28/2/27 26/2/25 29/2/28
f 28/2/27 30/2/29 31/2/30
f 33/2/32 32/2/31 31/2/30
f 33/2/32 34/2/33 35/2/34
f 37/2/36 36/2/35 35/2/34
f 37/2/36 38/2/37 39/2/38
f 40/2/39 39/2/38 41/2/40
f 43/2/42 42/2/41 41/2/40
f 43/2/42 44/2/43 45/2/44
f 47/2/46 46/2/45 45/2/44
f 47/2/46 48/2/47 49/2/48
f 51/2/50 50/2/49 49/2/48
f 53/2/52 51/2/50 52/2/51
f 53/2/52 54/2/53 55/2/54
f 57/2/56 56/2/55 55/2/54
f 57/2/56 58/2/57 59/2/58
f 61/2/60 60/2/59 59/2/58
f 63/2/62 61/2/60 62/2/61
f 63/2/62 64/2/63 65/2/64
f 67/2/66 66/2/65 65/2/64
f 67/2/66 68/2/67 69/2/68
f 71/2/70 70/2/69 69/2/68
f 71/2/70 72/2/71 73/2/72
f 74/2/74 75/2/76 29/2/28
f 74/2/74 77/2/78 76/2/75
f 79/2/77 78/2/80 76/2/75
f 79/2/77 81/2/83 80/2/79
f 84/2/81 83/2/84 82/2/82
f 83/2/84 86/2/88 85/2/85
f 89/2/86 88/2/91 87/2/87
f 86/2/88 91/2/112 90/2/89
f 88/2/91 94/2/94 93/2/92
f 88/2/91 96/2/98 95/2/93
f 94/2/94 95/2/93 97/2/95
f 100/2/97 99/2/143 95/2/93
f 98/2/96 102/2/101 101/2/99
f 104/2/100 103/2/107 101/2/99
f 104/2/100 102/2/101 105/2/102
f 107/2/104 106/2/103 105/2/102
f 110/2/106 109/2/109 101/2/99
f 112/2/108 111/2/111 109/2/109
f 102/2/101 98/2/96 113/2/110
f 111/2/111 87/2/87 93/2/92
f 83/2/84 114/2/114 91/2/112
f 116/2/113 115/2/121 91/2/112
f 112/2/108 82/2/82 85/2/85
f 84/2/81 117/2/115 114/2/114
f 119/2/117 78/2/80 80/2/79
f 112/2/108 110/2/106 80/2/79
f 84/2/81 79/2/77 77/2/78
f 78/2/80 119/2/117 120/2/118
f 123/2/120 122/2/122 61/2/60
f 116/2/113 64/2/63 62/2/61
f 125/2/123 124/2/125 56/2/55
f 126/2/124 128/2/127 127/2/126
f 128/2/127 130/2/129 129/2/128
f 130/2/129 132/2/131 131/2/130
f 135/2/133 134/2/135 133/2/132
f 137/2/134 136/2/137 134/2/135
f 139/2/136 138/2/138 136/2/137
f 142/2/140 141/2/144 134/2/135
f 143/2/141 127/2/126 129/2/128
f 58/2/57 55/2/54 92/2/90
f 143/2/141 53/2/52 56/2/55
f 54/2/53 100/2/97 96/2/98
f 143/2/141 144/2/142 50/2/49
f 100/2/97 52/2/51 49/2/48
f 144/2/142 129/2/128 131/2/130
f 48/2/47 45/2/44 97/2/95
f 44/2/43 113/2/110 97/2/95
f 133/2/132 134/2/135 141/2/144
f 108/2/105 105/2/102 113/2/110
f 142/2/140 37/2/36 40/2/39
f 107/2/104 108/2/105 39/2/38
f 138/2/138 33/2/32 36/2/35
f 35/2/34 34/2/33 121/2/119
f 138/2/138 140/2/139 32/2/31
f 34/2/33 31/2/30 120/2/118
f 27/2/73 73/2/72 29/2/28
f 25/2/23 23/2/24 1/2/3
f 137/2/134 135/2/133 15/2/15
f 128/2/127 12/2/12 13/2/13
f 11/2/9 17/2/16 14/2/14
f 123/2/120 4/2/4 6/2/6
f 3/2/1 21/2/19 19/2/20
f 2/2/2 4/2/4 123/2/120
f 7/2/8 126/2/124 125/2/123
f 3/2/1 1/2/3 23/2/24
f 126/2/124 7/2/8 8/2/7
f 20/2/22 22/2/21 140/2/139
f 139/2/136 137/2/134 16/2/17
f 132/2/131 130/2/129 13/2/13
f 2/2/2 67/2/66 70/2/69
f 125/2/123 57/2/56 60/2/59
f 24/2/26 28/2/27 32/2/31
f 133/2/132 43/2/42 46/2/45
f 68/2/67 117/2/115 118/2/116
f 65/2/64 116/2/113 114/2/114
f 59/2/58 58/2/57 90/2/89
f 72/2/71 69/2/68 118/2/116
f 89/2/86 92/2/90 96/2/98
f 75/2/76 76/2/75 120/2/118
f 119/2/117 104/2/100 106/2/103
