# Blender 3.3.0
# www.blender.org
mtllib wing.mtl
o Cube
v 1.252353 -0.146904 -0.296761
v 1.100896 -0.709799 -0.938348
v 1.443927 0.077606 1.376313
v 1.964443 -0.881500 0.093300
v 0.724678 -0.090880 0.345291
v 0.266542 -0.633660 -0.363733
v 0.517835 -0.145449 1.493548
v 0.087751 -0.718028 0.878029
v 1.307098 0.079852 10.763077
v 1.000000 -1.000000 10.724795
v -0.024166 -0.275698 10.750626
v -0.293404 -0.897517 10.752339
v 2.999855 -0.080426 -0.442174
v 5.661438 -1.000000 -1.000000
v 3.088018 -0.087586 1.184648
v 5.661438 -1.000000 1.000000
v 3.430629 -0.223202 10.734091
v 5.661438 -1.000000 10.724795
v 5.383272 0.395449 -0.433500
vn -0.0497 0.9906 -0.1272
vn -0.0794 -0.9966 -0.0212
vn -0.7245 0.6868 -0.0577
vn -0.1216 -0.9890 -0.0847
vn 0.0252 0.5709 -0.8207
vn -0.3296 0.7469 -0.5775
vn 0.0208 -0.0062 0.9998
vn -0.2346 0.9721 -0.0037
vn 0.1012 0.9948 0.0105
vn -0.9167 0.3968 -0.0481
vn 0.3266 0.9452 -0.0000
vn 0.3342 0.9425 -0.0000
vn 0.0082 -0.0378 0.9993
vn -0.0320 -0.9995 -0.0000
vn -0.0375 0.9993 0.0064
vn -0.0000 -1.0000 -0.0000
vn -0.2337 0.9723 0.0041
vn -0.0949 -0.9953 -0.0197
vn -0.7399 0.6650 -0.1017
vn -0.1293 -0.9900 -0.0565
vn -0.0826 0.7587 -0.6462
vn -0.3862 0.8358 -0.3903
vn 0.0001 -0.0355 0.9994
vn -0.2580 0.9661 -0.0015
vn 0.1413 0.9900 0.0018
vn -0.7893 0.6137 -0.0193
vn 0.3333 0.9427 -0.0139
vn 0.3289 0.9444 0.0016
vn -0.0000 -0.0120 0.9999
vn -0.0646 -0.9917 -0.1110
vn 0.0826 0.9864 -0.1418
vn -0.0287 -0.9995 -0.0137
vt 0.625000 0.500000
vt 0.375000 0.500000
vt 0.625000 0.750000
vt 0.375000 0.750000
vt 0.875000 0.500000
vt 0.625000 0.250000
vt 0.125000 0.500000
vt 0.375000 0.250000
vt 0.875000 0.750000
vt 0.625000 0.000000
vt 0.125000 0.750000
vt 0.375000 0.000000
vt 0.625000 0.750000
vt 0.375000 0.750000
vt 0.625000 0.000000
vt 0.625000 1.000000
vt 0.875000 0.750000
vt 0.125000 0.750000
vt 0.375000 1.000000
vt 0.375000 0.000000
vt 0.625000 0.500000
vt 0.375000 0.500000
vt 0.625000 0.750000
vt 0.375000 0.750000
vt 0.625000 0.750000
vt 0.375000 0.750000
s 0
usemtl Material
f 5/5/1 3/3/1 1/1/1
f 8/11/2 10/14/2 12/18/2
f 8/12/3 5/6/3 6/8/3
f 6/7/4 4/4/4 8/11/4
f 2/2/5 13/21/5 14/22/5
f 6/8/6 1/1/6 2/2/6
f 10/14/7 11/16/7 12/19/7
f 7/9/8 9/13/8 3/3/8
f 3/3/9 17/25/9 15/23/9
f 7/10/10 12/20/10 11/15/10
f 13/21/11 16/24/11 14/22/11
f 15/23/12 18/26/12 16/24/12
f 10/14/13 17/25/13 9/13/13
f 4/4/14 14/22/14 16/24/14
f 1/1/15 15/23/15 13/21/15
f 10/14/16 16/24/16 18/26/16
f 5/5/17 7/9/17 3/3/17
f 8/11/18 4/4/18 10/14/18
f 8/12/19 7/10/19 5/6/19
f 6/7/20 2/2/20 4/4/20
f 2/2/21 1/1/21 13/21/21
f 6/8/22 5/6/22 1/1/22
f 10/14/23 9/13/23 11/16/23
f 7/9/24 11/17/24 9/13/24
f 3/3/25 9/13/25 17/25/25
f 7/10/26 8/12/26 12/20/26
f 13/21/27 15/23/27 16/24/27
f 15/23/28 17/25/28 18/26/28
f 10/14/29 18/26/29 17/25/29
f 4/4/30 2/2/30 14/22/30
f 1/1/31 3/3/31 15/23/31
f 10/14/32 4/4/32 16/24/32
l 13 19
