v  0 -100 1.6292068e-05
v  42.532269 -85.065414 30.901154
v  -16.245556 -85.065437 49.999542
v  -27.638802 -44.722 -85.064919
v  -58.778561 -1.3180555e-05 -80.901672
v  0 -1.6292066e-05 -99.999992
v  27.638802 44.722 85.064919
v  68.818939 52.573627 49.999687
v  16.245556 85.065445 49.999512
v  -85.064789 52.573593 -8.5653255e-06
v  -72.360733 44.721958 52.572521
v  -42.532269 85.06543 30.901127
v  0 100 -1.6292068e-05
v  95.105782 -5.0344547e-06 -30.901262
v  68.818939 52.573612 -49.999702
v  89.442619 44.721561 -7.2860671e-06
v  -72.360733 44.721943 -52.572536
v  -26.286882 52.573753 -80.901169
v  58.778561 -1.3180555e-05 -80.901672
v  27.638802 44.72197 -85.064934
v  85.064789 -52.573593 8.5653255e-06
v  72.360733 -44.721958 -52.572521
v  -52.572979 -85.06517 1.3858875e-05
v  -68.818939 -52.573612 49.999702
v  -89.442619 -44.721561 7.2860671e-06
v  26.286882 -52.573753 80.901169
v  -27.638802 -44.72197 85.064934
v  72.360733 -44.721943 52.572536
v  0 1.6292066e-05 99.999992
v  -95.105782 5.0344547e-06 30.901262
v  52.572979 85.06517 -1.3858875e-05
v  -26.286882 52.573776 80.901154
v  26.286882 -52.573776 -80.901154
v  -95.105782 -5.0344547e-06 -30.901262
v  42.532269 -85.06543 -30.901127
v  -16.245556 -85.065453 -49.999512
v  95.105782 5.0344547e-06 30.901262    
v  -58.778561 1.3180555e-05 80.901672
v  16.245556 85.06543 -49.999542
v  58.778561 1.3180555e-05 80.901672
v  -42.532269 85.065414 -30.901154
v  -68.818939 -52.573627 -49.999687

vn 10.238079 -94.352341 31.508997
vn -30.656889 -12.562912 -94.352158
vn 40.8946 66.169868 62.842503
vn -70.022392 66.169899 26.803179
vn -10.238079 94.352356 31.508976
vn 88.969734 33.038475 -31.50947
vn -53.457596 33.038654 -77.786453
vn 30.656889 12.562859 -94.352158
vn 90.498909 -33.038456 -26.803127
vn -72.404205 -66.16954 19.473623
vn -3.8530633 -66.169846 74.877922
vn 47.129982 -66.169853 58.312225
vn 70.022392 -66.169884 26.803192
vn -26.803408 -94.352287 19.473665
vn 2.4746609 -33.038616 94.352127
vn -88.969727 -33.038471 31.509474
vn 72.404205 66.16954 -19.473619
vn 3.853039 66.169884 74.877899
vn 26.803408 94.352287 19.473646
vn -2.4746609 33.038628 -94.352127
vn -90.498917 33.03846 26.803129
vn 2.4746609 -33.038647 -94.352112
vn -80.260902 12.56272 -58.312653
vn 70.022392 -66.169899 -26.803179
vn -26.803408 -94.352287 -19.473635
vn 90.498909 -33.038448 26.803141
vn -30.656889 -12.562881 94.352158
vn -99.207741 -12.562832 2.0467451e-06
vn 3.8530395 66.169861 -74.877922
vn 26.803408 94.352287 -19.473675
vn 72.404205 66.16954 19.473597
vn -90.498917 33.038452 -26.803141
vn -2.4746609 33.038658 94.352112
vn -80.260902 12.562739 58.312645
vn 47.129982 -66.169868 -58.312202
vn -3.8530633 -66.169876 -74.877907
vn 10.238079 -94.352356 -31.508966
vn 53.4576 -33.038681 -77.786446
vn 80.260902 -12.56272 58.312653
vn -70.022392 66.169884 -26.803192
vn 40.8946 66.169846 -62.842529
vn -10.238079 94.352341 -31.509007
vn -53.457596 33.038677 77.786438
vn 88.969734 33.038483 31.509459
vn -88.969727 -33.038479 -31.509462
vn -57.460194 -33.038742 74.878357
vn 30.656889 12.562889 94.352158
vn -40.894596 -66.169861 -62.842506
vn -57.460201 -33.038769 -74.878342
vn 80.260902 -12.562739 -58.312645
vn -47.12999 66.169876 58.312206
vn -47.12999 66.169853 -58.312237
vn -33.130447 94.352379 -1.5371954e-05
vn 57.460194 33.038742 -74.878357
vn 57.460194 33.038765 74.878342
vn 53.457596 -33.038658 77.786461
vn 99.207741 12.562832 -2.0467451e-06
vn -72.404205 -66.16954 -19.4736
vn -40.894596 -66.169846 62.842529
vn 33.130447 -94.352379 1.5371954e-05
vn 49.111946 79.465729 -35.68211
vn -18.759388 79.465767 -57.734547
vn -60.706051 79.465553 -1.2946583e-05
vn -18.759398 79.465782 57.734524
vn 49.111958 79.465744 35.682087
vn 79.465569 18.759497 -57.734791
vn -30.35309 18.759716 -93.417152
vn -98.224579 18.759853 -3.0563681e-06
vn -30.353086 18.759752 93.417137
vn 79.465569 18.75952 57.734783
vn 30.353086 -18.759752 -93.417137
vn -79.465569 -18.75952 -57.734783
vn -79.465569 -18.759497 57.734791
vn 30.35309 -18.759716 93.417152
vn 98.224579 -18.759853 3.0563681e-06
vn 18.759424 -79.465782 -57.734524
vn -49.111958 -79.465744 -35.682079
vn -49.111958 -79.465736 35.682106
vn 60.706055 -79.465553 1.2946583e-05
vn 18.759424 -79.465767 57.734547

f  1//1 2//1 3//1
f  4//2 5//2 6//2
f  7//3 8//3 9//3
f  10//4 11//4 12//4
f  12//5 9//5 13//5
f  14//6 15//6 16//6
f  5//7 17//7 18//7
f  19//8 6//8 20//8
f  21//9 22//9 14//9
f  23//10 24//10 25//10
f  3//11 26//11 27//11
f  2//12 28//12 26//12

f  28//13 2//13 21//13
f  1//14 3//14 23//14
f  27//15 26//15 29//15
f  25//16 24//16 30//16
f  16//17 15//17 31//17
f  32//18 7//18 9//18
f  9//19 31//19 13//19
f  6//20 18//20 20//20
f  30//21 11//21 10//21
f  33//22 4//22 6//22
f  5//23 34//23 17//23
f  21//24 35//24 22//24

f  1//25 23//25 36//25
f  28//26 21//26 37//26
f  27//27 29//27 38//27
f  25//28 30//28 34//28
f  20//29 18//29 39//29
f  31//30 39//30 13//30
f  8//31 16//31 31//31
f  34//32 10//32 17//32
f  29//33 7//33 32//33
f  30//34 38//34 11//34
f  35//35 33//35 22//35
f  36//36 4//36 33//36

f  1//37 36//37 35//37
f  22//38 33//38 19//38
f  28//39 37//39 40//39
f  17//40 10//40 41//40
f  15//41 20//41 39//41
f  39//42 41//42 13//42
f  38//43 32//43 11//43
f  37//44 16//44 8//44
f  42//45 25//45 34//45
f  24//46 27//46 38//46
f  29//47 40//47 7//47
f  36//48 42//48 4//48

f  4//49 42//49 5//49
f  22//50 19//50 14//50
f  11//51 32//51 12//51
f  18//52 17//52 41//52
f  41//53 12//53 13//53
f  19//54 20//54 15//54
f  40//55 8//55 7//55
f  26//56 28//56 40//56
f  37//57 14//57 16//57
f  23//58 25//58 42//58
f  3//59 27//59 24//59
f  2//60 1//60 35//60

f  31//61 15//61 39//61
f  39//62 18//62 41//62
f  41//63 10//63 12//63
f  12//64 32//64 9//64
f  9//65 8//65 31//65
f  14//66 19//66 15//66
f  6//67 5//67 18//67
f  34//68 30//68 10//68
f  38//69 29//69 32//69
f  40//70 37//70 8//70
f  19//71 33//71 6//71
f  5//72 42//72 34//72
f  30//73 24//73 38//73
f  29//74 26//74 40//74
f  37//75 21//75 14//75
f  35//76 36//76 33//76
f  36//77 23//77 42//77
f  23//78 3//78 24//78
f  21//79 2//79 35//79
f  3//80 2//80 26//80

