v 0.088000 1.227111 -0.362286
v 0.228076 0.906245 -0.362286
v 0.220000 0.920474 -0.826748
v 0.088000 1.227111 -0.826748
v 0.253276 0.901234 -1.246768
v 0.301519 0.362757 -0.077473
v 0.286443 0.387852 0.737771
v 0.301519 0.843326 -0.077473
v 0.253276 0.437678 -1.246768
v 0.286443 0.830312 0.737771
v 0.207686 0.501922 -2.058016
v 0.207686 0.914951 -2.058016
v 0.229097 0.824048 1.252902
v 0.229097 0.497911 1.252902
v 2.843736 0.627079 -0.215417
v 0.150759 0.304303 0.330149
v 2.843736 0.589945 0.029282
v 3.126092 0.618229 -0.132246
v 3.126092 0.640113 -0.227655
v 0.072305 0.999619 -3.425877
v 0.223122 0.930382 -3.667100
v 0.139996 0.957285 -2.741946
v 0.191846 0.826430 1.416558
v 2.843736 0.589945 -0.615354
v 0.191846 0.589393 1.416558
v 0.057726 0.696780 1.731228
v 3.126092 0.618229 -0.383592
v 0.341329 0.966144 -3.029909
v 0.391993 0.985551 -3.398348
v 0.057726 0.757708 1.731228
v 1.007748 0.930382 -3.159566
v 0.240662 0.961715 -2.885926
v 0.988543 0.959300 -3.359692
v 0.988543 0.930382 -3.521698
v 1.095537 0.930382 -3.357091
v 0.048816 1.463790 -3.416182
v 0.206322 0.588355 0.041770
v 0.206322 0.892967 0.041770
v 0.221504 0.605577 -1.366519
v 0.203387 0.932606 -1.366519
v -0.088000 1.227111 -0.362286
v 0.000000 1.227111 -0.362286
v -0.228076 0.906245 -0.362286
v -0.220000 0.920474 -0.826748
v -0.088000 1.227111 -0.826748
v 0.000000 1.227111 -0.826748
v -0.253276 0.901234 -1.246768
v 0.000000 1.051084 -0.077473
v 0.000000 1.101638 -1.246768
v -0.301519 0.362757 -0.077473
v 0.000000 1.021595 0.737771
v -0.286443 0.387852 0.737771
v -0.301519 0.843326 -0.077473
v -0.253276 0.437678 -1.246768
v 0.000000 1.093511 -2.058016
v -0.286443 0.830312 0.737771
v 0.000000 0.288903 -1.246768
v -0.207686 0.501922 -2.058016
v -0.207686 0.914951 -2.058016
v -0.229097 0.824048 1.252902
v 0.000000 0.245848 0.737771
v -0.229097 0.497911 1.252902
v 0.000000 0.393240 1.252902
v 0.000000 0.229718 -0.077473
v -2.843736 0.627079 -0.215417
v 0.000000 0.369364 -2.058016
v 0.000000 0.571117 -3.512506
v -0.150759 0.304303 0.330149
v -2.843736 0.589945 0.029282
v -3.126092 0.618229 -0.132246
v -3.126092 0.640113 -0.227655
v -0.072305 0.999619 -3.425877
v -0.223122 0.930382 -3.667100
v -0.139996 0.957285 -2.741946
v -0.191846 0.826430 1.416558
v 0.000000 0.965043 1.252902
v -2.843736 0.589945 -0.615354
v -0.191846 0.589393 1.416558
v -0.057726 0.696780 1.731228
v 0.000000 0.513318 1.416558
v 0.000000 0.784048 1.731228
v 0.000000 0.928905 1.416558
v -3.126092 0.618229 -0.383592
v 0.000000 0.744336 -3.864774
v -0.341329 0.966144 -3.029909
v -0.391993 0.985551 -3.398348
v 0.000000 1.041299 -2.854242
v 0.000000 0.677226 1.731228
v -0.057726 0.757708 1.731228
v 0.000000 0.973735 -3.897300
v -1.007748 0.930382 -3.159566
v -0.240662 0.961715 -2.885926
v -0.988543 0.959300 -3.359692
v 0.000000 1.443730 -3.729302
v -0.988543 0.930382 -3.521698
v -1.095537 0.930382 -3.357091
v 0.000000 1.488115 -3.036502
v 0.000000 1.712121 -3.151963
v -0.048816 1.463790 -3.416182
v 0.000000 1.693028 -3.529166
v 0.000000 1.725450 -3.366570
v 0.000000 0.588355 0.041770
v 0.000000 0.892967 0.041770
v 0.000000 0.605577 -1.366519
v 0.000000 0.932606 -1.366519
v -0.206322 0.588355 0.041770
v -0.206322 0.892967 0.041770
v -0.221504 0.605577 -1.366519
v -0.203387 0.932606 -1.366519
vn -0.0000 0.9670 0.2549
vn 0.5219 0.8091 0.2703
vn -0.0000 0.9619 0.2733
vn 0.7432 0.6636 0.0849
vn 0.5435 0.8232 -0.1644
vn 0.8904 0.4550 0.0084
vn 0.7652 0.6424 -0.0431
vn -0.0000 0.9942 -0.1076
vn -0.0000 0.9895 -0.1446
vn 0.8836 0.4638 0.0645
vn 0.8652 -0.4954 -0.0774
vn 0.9868 -0.1613 -0.0115
vn 0.8992 0.4367 -0.0261
vn -0.0000 0.9979 0.0642
vn 0.8350 -0.5371 0.1198
vn -0.0000 -0.9951 -0.0993
vn 0.8754 -0.4702 -0.1127
vn 0.6478 0.7611 -0.0346
vn 0.8692 0.4712 0.1500
vn 0.3592 -0.9320 0.0489
vn 0.7874 -0.5219 0.3281
vn -0.1028 0.9938 -0.0423
vn -0.0991 0.9942 0.0412
vn -0.0630 0.9974 0.0361
vn -0.0000 -0.8763 -0.4818
vn 0.9100 0.4083 -0.0724
vn -0.0000 0.9898 0.1425
vn -0.0633 0.9870 0.1474
vn -0.0930 0.9898 0.1076
vn -0.0000 -0.9885 0.1510
vn -0.0000 -0.9092 0.4164
vn 0.7778 -0.4474 0.4415
vn 0.8116 0.4969 0.3073
vn 0.1076 -0.9942 -0.0005
vn -0.0000 -0.9994 0.0359
vn -0.0000 -0.9987 -0.0506
vn -0.0671 0.9931 -0.0967
vn -0.0000 -0.9931 -0.1173
vn 0.9009 0.4295 -0.0626
vn 0.7341 0.6780 0.0368
vn 0.1032 -0.9947 -0.0000
vn -0.0000 -0.8529 0.5221
vn 0.5173 -0.3522 0.7800
vn 0.5366 0.3480 0.7688
vn -0.0267 0.9804 0.1951
vn -0.0303 0.9982 0.0524
vn 0.9899 -0.0806 -0.1162
vn 0.9981 -0.0003 -0.0624
vn 0.0502 0.9960 -0.0743
vn 0.0389 0.9976 0.0579
vn 0.0554 0.9963 0.0664
vn -0.1178 -0.9929 0.0183
vn -0.0845 -0.9963 0.0154
vn -0.4340 -0.9008 -0.0128
vn -0.0000 0.9523 0.3051
vn 0.0997 -0.9950 -0.0000
vn -0.0000 -0.5888 0.8083
vn -0.0000 0.6276 0.7786
vn 0.0149 0.9902 -0.1390
vn 0.9882 0.0121 -0.1527
vn 0.0505 0.9956 -0.0792
vn 0.0545 0.9708 -0.2335
vn 0.0482 0.9929 0.1087
vn 0.0444 0.9990 -0.0073
vn 0.0687 0.9945 0.0786
vn -0.0175 -0.9997 0.0155
vn 0.9909 0.0544 0.1230
vn 1.0000 -0.0000 -0.0000
vn 0.9952 0.0948 -0.0234
vn 0.0520 0.9809 -0.1872
vn -0.0302 -0.9995 0.0016
vn 0.9843 0.0781 -0.1585
vn -0.9574 -0.2844 0.0508
vn -0.0000 -1.0000 -0.0000
vn 0.2612 0.9652 -0.0151
vn 0.2615 0.9646 -0.0343
vn 0.2566 0.9598 0.1141
vn 0.2610 0.9503 -0.1696
vn 0.9907 0.1097 0.0799
vn 0.9821 0.1622 -0.0953
vn 0.9827 0.1851 -0.0091
vn -0.0000 -0.0000 1.0000
vn -0.9985 -0.0553 0.0005
vn -0.0000 -0.0000 -1.0000
vn -0.0000 0.9999 0.0122
vn -0.5219 0.8091 0.2703
vn -0.7432 0.6636 0.0849
vn -0.5435 0.8232 -0.1644
vn -0.8904 0.4550 0.0084
vn -0.7652 0.6424 -0.0431
vn -0.8992 0.4367 -0.0261
vn -0.8836 0.4638 0.0645
vn -0.8652 -0.4954 -0.0774
vn -0.9868 -0.1613 -0.0115
vn -0.8350 -0.5371 0.1198
vn -0.8754 -0.4702 -0.1127
vn -0.6478 0.7611 -0.0346
vn -0.8692 0.4712 0.1500
vn -0.3592 -0.9320 0.0489
vn -0.7874 -0.5219 0.3281
vn 0.1028 0.9938 -0.0423
vn 0.0630 0.9974 0.0361
vn 0.0991 0.9942 0.0412
vn -0.9100 0.4083 -0.0724
vn 0.0633 0.9870 0.1474
vn 0.0930 0.9898 0.1076
vn -0.7778 -0.4474 0.4415
vn -0.1076 -0.9942 -0.0005
vn 0.0671 0.9931 -0.0967
vn -0.9009 0.4295 -0.0626
vn -0.7341 0.6780 0.0368
vn -0.8116 0.4969 0.3073
vn -0.1032 -0.9947 -0.0000
vn -0.5173 -0.3522 0.7800
vn -0.5366 0.3480 0.7688
vn 0.0267 0.9804 0.1951
vn 0.0303 0.9982 0.0524
vn -0.9981 -0.0003 -0.0624
vn -0.9899 -0.0806 -0.1162
vn -0.0554 0.9963 0.0664
vn -0.0389 0.9976 0.0579
vn -0.0502 0.9960 -0.0743
vn 0.1178 -0.9929 0.0183
vn 0.4340 -0.9008 -0.0128
vn 0.0845 -0.9963 0.0154
vn -0.0997 -0.9950 -0.0000
vn -0.0149 0.9902 -0.1390
vn -0.9882 0.0121 -0.1527
vn -0.0545 0.9708 -0.2335
vn -0.0505 0.9956 -0.0792
vn -0.0482 0.9929 0.1087
vn -0.0687 0.9945 0.0786
vn 0.0175 -0.9997 0.0155
vn -0.9909 0.0544 0.1230
vn -1.0000 -0.0000 -0.0000
vn -0.9952 0.0948 -0.0234
vn -0.0520 0.9809 -0.1872
vn 0.0302 -0.9995 0.0016
vn -0.0444 0.9990 -0.0073
vn -0.9843 0.0781 -0.1585
vn 0.9574 -0.2844 0.0508
vn -0.2612 0.9652 -0.0151
vn -0.2566 0.9598 0.1141
vn -0.2615 0.9646 -0.0343
vn -0.2610 0.9503 -0.1696
vn -0.9907 0.1097 0.0799
vn -0.9821 0.1622 -0.0953
vn -0.9827 0.1851 -0.0091
vn 0.9999 -0.0000 -0.0108
vn -0.9999 -0.0000 -0.0108
vn -0.0000 0.9967 0.0814
vn 0.9985 -0.0553 0.0005
vt 0.406450 0.976072
vt 0.406449 0.910340
vt 0.399536 0.886864
vt 0.493652 0.913394
vt 0.488286 0.888075
vt 0.493652 0.976072
vt 0.568142 0.879212
vt 0.680750 0.140783
vt 0.342919 0.777649
vt 0.194303 0.790307
vt 0.345067 0.869452
vt 0.567450 0.790542
vt 0.194967 0.869239
vt 0.721695 0.802181
vt 0.722735 0.880739
vt 0.104386 0.866550
vt 0.106206 0.811211
vt 0.520444 0.669820
vt 0.775112 0.129282
vt 0.263849 0.754330
vt 0.114918 0.114023
vt 0.571105 0.683589
vt 0.296780 0.679394
vt 0.519956 0.731153
vt 0.343604 0.732992
vt 0.502181 0.722452
vt 0.690384 0.423087
vt 0.986033 0.893124
vt 0.880024 0.258231
vt 0.985697 0.892896
vt 0.692022 0.709002
vt 0.746298 0.391047
vt 0.746223 0.743838
vt 0.640936 0.566315
vt 0.854086 0.886900
vt 0.075786 0.865987
vt 0.434471 0.651401
vt 0.076567 0.825326
vt 0.013693 0.844589
vt 0.471995 0.719338
vt 0.397290 0.722077
vt 0.708149 0.604618
vt 0.753019 0.673240
vt 0.014103 0.856117
vt 0.023660 0.694102
vt 0.023660 0.617334
vt 0.023660 0.595375
vt 0.852962 0.566935
vt 0.674542 0.585467
vt 0.868048 0.609013
vt 0.142089 0.676317
vt 0.141592 0.616206
vt 0.883912 0.493363
vt 0.883912 0.641572
vt 0.237475 0.694102
vt 0.237475 0.617334
vt 0.238621 0.616206
vt 0.137217 0.675189
vt 0.143078 0.550857
vt 0.869237 0.365864
vt 0.043592 0.484387
vt 0.011288 0.484341
vt 0.043592 0.516691
vt 0.041982 0.335030
vt 0.007248 0.334990
vt 0.043903 0.300350
vt 0.406450 0.976072
vt 0.396718 0.989423
vt 0.406450 0.992594
vt 0.406449 0.910340
vt 0.399536 0.886864
vt 0.493652 0.913394
vt 0.488286 0.888075
vt 0.493652 0.976072
vt 0.499765 0.991421
vt 0.493652 0.992594
vt 0.568142 0.879212
vt 0.345920 0.952395
vt 0.345155 0.939241
vt 0.576225 0.960967
vt 0.570069 0.940741
vt 0.342919 0.777649
vt 0.680750 0.140783
vt 0.190033 0.932985
vt 0.194303 0.790307
vt 0.345067 0.869452
vt 0.567450 0.790542
vt 0.725518 0.933083
vt 0.194967 0.869239
vt 0.446303 0.013198
vt 0.571607 0.734201
vt 0.721695 0.802181
vt 0.722735 0.880739
vt 0.104386 0.866550
vt 0.184710 0.734201
vt 0.021214 0.095167
vt 0.106206 0.811211
vt 0.091626 0.768082
vt 0.195858 0.062189
vt 0.520444 0.669820
vt 0.726444 0.755484
vt 0.911224 0.159396
vt 1.002281 0.809752
vt 0.775112 0.129282
vt 0.263849 0.754330
vt 0.114918 0.114023
vt 0.571105 0.683589
vt 0.296780 0.679394
vt 0.519956 0.731153
vt 0.343604 0.732992
vt 0.502181 0.722452
vt 0.690384 0.423087
vt 0.880024 0.258231
vt 0.985697 0.892896
vt 0.692022 0.709002
vt 0.986033 0.893124
vt 0.746298 0.391047
vt 0.746223 0.743838
vt 0.640936 0.566315
vt 0.854086 0.886900
vt 0.075786 0.865987
vt 0.094159 0.914179
vt 0.434471 0.651401
vt 0.076567 0.825326
vt 0.013693 0.844589
vt 0.059489 0.791044
vt 0.003358 0.861488
vt 0.009400 0.867134
vt 0.064180 0.902857
vt 0.471995 0.719338
vt 0.397290 0.722077
vt 0.989028 0.208152
vt 0.708149 0.604618
vt 0.753019 0.673240
vt 0.745334 0.258353
vt 0.877738 0.916660
vt 0.007604 0.834664
vt 0.002640 0.841277
vt 0.014103 0.856117
vt 0.991669 0.262280
vt 0.023660 0.694102
vt 0.023660 0.617334
vt 0.023660 0.595375
vt 0.852962 0.566935
vt 0.674542 0.585467
vt 0.142089 0.676317
vt 0.141592 0.616206
vt 0.868048 0.609013
vt 0.943013 0.368244
vt 0.883912 0.493363
vt 0.883912 0.641572
vt 0.237475 0.694102
vt 0.237475 0.617334
vt 0.238621 0.616206
vt 0.137217 0.675189
vt 0.143078 0.550857
vt 0.779963 0.365400
vt 0.803186 0.419588
vt 0.869237 0.365864
vt 0.891422 0.422129
vt 0.852944 0.426665
vt 0.087351 0.484387
vt 0.087351 0.516691
vt 0.088962 0.335030
vt 0.087040 0.300350
vt 0.043592 0.484387
vt 0.011288 0.484341
vt 0.043592 0.516691
vt 0.041982 0.335030
vt 0.043903 0.300350
vt 0.007248 0.334990
f 8/11/6 2/3/4 48/79/1
f 8/11/6 3/5/7 2/3/4
f 8/11/6 48/79/1 10/13/10
f 9/12/11 8/11/6 6/9/12
f 5/7/13 49/81/8 3/5/7
f 51/84/14 10/13/10 48/79/1
f 7/10/15 8/11/6 10/13/10
f 6/9/12 57/91/16 9/12/11
f 11/14/17 5/7/13 9/12/11
f 49/81/8 5/7/13 55/88/18
f 10/13/10 51/84/14 13/16/19
f 16/20/20 6/9/12 7/10/15
f 14/17/21 10/13/10 13/16/19
f 57/90/22 6/8/23 15/18/24
f 9/12/11 57/91/16 11/14/17
f 67/103/25 12/15/26 11/14/17
f 12/15/26 55/88/18 5/7/13
f 76/122/27 13/16/19 51/84/14
f 17/22/28 6/8/23 16/19/29
f 16/20/20 7/10/15 61/95/30
f 14/17/21 63/98/31 7/10/15
f 25/38/32 13/16/19 23/36/33
f 24/37/34 64/99/35 57/90/36
f 24/37/34 16/21/20 64/99/35
f 6/8/23 17/22/28 15/18/24
f 57/90/22 15/18/24 24/37/37
f 66/101/38 11/14/17 57/91/16
f 67/103/25 22/35/39 12/15/26
f 66/101/38 67/103/25 11/14/17
f 12/15/26 87/136/40 55/88/18
f 13/16/19 76/122/27 23/36/33
f 16/21/20 24/37/34 17/23/41
f 61/95/30 7/10/15 63/98/31
f 64/99/35 16/21/20 61/96/30
f 63/98/31 14/17/21 80/126/42
f 25/38/32 80/126/42 14/17/21
f 26/39/43 23/36/33 30/44/44
f 17/22/28 18/24/45 15/18/24
f 15/18/24 19/26/46 24/37/37
f 67/102/25 84/132/47 20/29/48
f 20/31/49 32/49/50 28/42/51
f 21/32/52 22/34/53 20/27/54
f 87/136/40 22/35/39 20/28/48
f 82/129/55 23/36/33 76/122/27
f 27/41/56 17/23/41 24/37/34
f 25/38/32 26/39/43 80/126/42
f 88/138/57 30/44/44 81/127/58
f 23/36/33 82/129/55 30/44/44
f 19/26/46 15/18/24 18/24/45
f 27/40/59 24/37/37 19/26/46
f 90/140/60 20/29/48 84/132/47
f 20/31/49 29/43/61 21/33/62
f 29/43/61 31/48/63 33/50/64
f 28/42/51 22/34/65 31/48/63
f 22/34/53 21/32/52 34/53/66
f 87/135/40 20/29/48 97/157/67
f 18/24/68 27/40/68 19/26/68
f 88/137/57 80/126/42 26/39/43
f 81/128/58 30/44/44 82/129/55
f 20/29/48 90/140/60 36/60/69
f 29/43/61 34/54/70 21/33/62
f 34/53/66 31/48/71 22/34/53
f 34/54/70 29/43/61 33/50/64
f 36/60/69 97/157/67 20/29/48
f 94/149/72 36/60/69 90/140/60
f 34/55/73 31/45/73 33/51/73
f 31/46/74 34/56/74 35/58/74
f 35/59/75 33/52/76 31/47/77
f 33/52/76 35/59/75 34/57/78
f 97/157/67 36/60/69 98/158/79
f 100/160/80 36/60/69 94/149/72
f 101/161/81 98/158/79 36/60/69
f 36/60/69 100/160/80 101/161/81
f 104/164/82 40/66/82 105/165/82
f 39/64/83 38/62/83 40/65/83
f 102/162/84 38/63/84 37/61/84
f 104/164/85 37/61/85 39/64/85
f 53/86/89 48/79/1 43/71/87
f 53/86/89 44/73/90 47/77/91
f 53/86/89 56/89/92 48/79/1
f 53/86/89 54/87/93 50/82/94
f 47/77/91 44/73/90 49/81/8
f 51/84/14 48/79/1 56/89/92
f 52/85/95 53/86/89 50/82/94
f 50/82/94 54/87/93 57/91/16
f 47/77/91 58/92/96 54/87/93
f 49/81/8 55/88/97 47/77/91
f 56/89/92 60/94/98 51/84/14
f 68/105/99 52/85/95 50/82/94
f 62/97/100 56/89/92 52/85/95
f 57/90/101 65/100/102 50/83/103
f 54/87/93 58/92/96 57/91/16
f 67/103/25 58/92/96 59/93/104
f 59/93/104 47/77/91 55/88/97
f 76/122/27 51/84/14 60/94/98
f 69/107/105 68/104/106 50/83/103
f 68/105/99 61/95/30 52/85/95
f 62/97/100 52/85/95 63/98/31
f 78/124/107 60/94/98 62/97/100
f 77/123/108 57/90/36 64/99/35
f 77/123/108 64/99/35 68/106/99
f 50/83/103 65/100/102 69/107/105
f 57/90/101 77/123/109 65/100/102
f 66/101/38 57/91/16 58/92/96
f 74/120/110 67/103/25 59/93/104
f 66/101/38 58/92/96 67/103/25
f 59/93/104 55/88/97 87/136/111
f 60/94/98 75/121/112 76/122/27
f 68/106/99 69/108/113 77/123/108
f 61/95/30 63/98/31 52/85/95
f 64/99/35 61/96/30 68/106/99
f 63/98/31 80/126/42 62/97/100
f 78/124/107 62/97/100 80/126/42
f 75/121/112 79/125/114 89/139/115
f 69/107/105 65/100/102 70/109/116
f 65/100/102 77/123/109 71/111/117
f 67/102/25 72/113/118 84/132/119
f 85/133/120 74/119/121 72/115/122
f 73/117/123 72/112/124 74/119/125
f 87/136/111 74/120/110 59/93/104
f 82/129/55 76/122/27 75/121/112
f 69/108/113 83/131/126 77/123/108
f 78/124/107 80/126/42 79/125/114
f 89/139/115 88/138/57 81/127/58
f 75/121/112 89/139/115 82/129/55
f 71/111/117 70/109/116 65/100/102
f 83/130/127 71/111/117 77/123/109
f 90/140/128 84/132/119 72/113/118
f 72/115/122 73/118/129 86/134/130
f 86/134/130 91/144/131 85/133/120
f 85/133/120 91/144/131 74/119/132
f 74/119/125 95/150/133 73/117/123
f 87/135/111 97/157/134 72/113/118
f 70/109/135 71/111/135 83/130/135
f 88/137/57 79/125/114 80/126/42
f 81/128/58 82/129/55 89/139/115
f 72/113/118 99/159/136 90/140/128
f 86/134/130 73/118/129 95/151/137
f 95/150/133 74/119/125 91/144/138
f 95/151/137 93/148/139 86/134/130
f 99/159/136 72/113/118 97/157/134
f 94/149/140 90/140/128 99/159/136
f 95/152/141 93/146/141 91/141/141
f 91/142/74 96/155/74 95/153/74
f 96/156/142 91/143/143 93/147/144
f 93/147/144 95/154/145 96/156/142
f 97/157/134 98/158/146 99/159/136
f 100/160/147 94/149/140 99/159/136
f 101/161/148 99/159/136 98/158/146
f 99/159/136 101/161/148 100/160/147
f 104/164/82 109/170/82 108/169/82
f 108/169/149 107/167/149 106/166/149
f 107/168/84 102/162/84 106/166/84
f 104/164/85 106/166/85 102/162/85
f 8/11/6 5/7/13 3/5/7
f 9/12/11 5/7/13 8/11/6
f 7/10/15 6/9/12 8/11/6
f 11/14/17 12/15/26 5/7/13
f 14/17/21 7/10/15 10/13/10
f 25/38/32 14/17/21 13/16/19
f 67/103/25 20/30/48 22/35/39
f 26/39/43 25/38/32 23/36/33
f 28/42/51 29/43/61 20/31/49
f 20/31/49 22/34/50 32/49/50
f 87/136/40 12/15/26 22/35/39
f 27/41/56 18/25/56 17/23/41
f 88/138/57 26/39/43 30/44/44
f 29/43/61 28/42/51 31/48/63
f 104/164/82 39/64/82 40/66/82
f 39/64/150 37/61/150 38/62/150
f 102/162/84 103/163/84 38/63/84
f 104/164/85 102/162/85 37/61/85
f 53/86/89 43/71/87 44/73/90
f 53/86/89 47/77/91 54/87/93
f 52/85/95 56/89/92 53/86/89
f 47/77/91 59/93/104 58/92/96
f 62/97/100 60/94/98 56/89/92
f 78/124/107 75/121/112 60/94/98
f 74/120/110 72/114/118 67/103/25
f 75/121/112 78/124/107 79/125/114
f 72/115/122 86/134/130 85/133/120
f 85/133/151 92/145/151 74/119/151
f 87/136/111 72/116/118 74/120/110
f 69/108/113 70/110/126 83/131/126
f 89/139/115 79/125/114 88/138/57
f 86/134/130 93/148/139 91/144/131
f 104/164/82 105/165/82 109/170/82
f 108/169/152 109/171/152 107/167/152
f 107/168/84 103/163/84 102/162/84
f 104/164/85 108/169/85 106/166/85
f 48/78/1 1/1/2 42/68/3
f 1/1/2 48/78/1 2/2/4
f 4/6/5 42/69/3 1/1/2
f 3/4/7 1/1/2 2/2/4
f 1/1/2 3/4/7 4/6/5
f 4/6/5 49/80/8 46/75/9
f 49/80/8 4/6/5 3/4/7
f 48/78/1 42/68/3 41/67/86
f 41/67/86 43/70/87 48/78/1
f 42/69/3 45/74/88 41/67/86
f 44/72/90 43/70/87 41/67/86
f 41/67/86 45/74/88 44/72/90
f 45/74/88 46/75/9 49/80/8
f 49/80/8 44/72/90 45/74/88
f 4/6/5 46/76/9 42/69/3
f 42/69/3 46/76/9 45/74/88
v -0.073826 0.660637 1.632934
v -0.383213 1.170738 1.622892
v -0.002174 0.711392 1.592646
v -0.346151 1.196991 1.602206
v 0.000057 0.712972 1.631517
v -0.345375 1.197541 1.622166
v 0.067974 0.761082 1.591765
v -0.310592 1.222180 1.601808
v 0.067613 0.764779 1.632934
v 0.377000 0.254678 1.622892
v -0.004039 0.714024 1.592646
v 0.339938 0.228425 1.602206
v -0.006270 0.712444 1.631517
v 0.339162 0.227875 1.622166
v -0.074187 0.664334 1.591765
v 0.304379 0.203236 1.601808
vn -0.3486 -0.2293 -0.9088
vn -0.0177 0.0072 -0.9998
vn 0.3427 0.2617 0.9023
vn 0.0037 0.0219 0.9998
vn 0.5780 -0.8160 -0.0000
vn -0.5780 0.8160 -0.0000
vn 0.3486 0.2293 -0.9088
vn 0.0177 -0.0072 -0.9998
vn -0.3427 -0.2617 0.9023
vn -0.0037 -0.0219 0.9998
vn -0.3466 -0.2276 -0.9100
vn -0.0167 0.0078 -0.9998
vn 0.3466 0.2276 -0.9100
vn 0.0167 -0.0078 -0.9998
f 111//153 112//153 110//153
f 112//154 117//154 116//154
f 117//155 114//155 116//155
f 114//156 111//156 110//156
f 112//157 114//157 110//157
f 113//158 115//158 117//158
f 119//159 120//159 118//159
f 120//160 125//160 124//160
f 125//161 122//161 124//161
f 122//162 119//162 118//162
f 120//158 122//158 118//158
f 121//157 123//157 125//157
f 111//163 113//163 112//163
f 112//164 113//164 117//164
f 117//155 115//155 114//155
f 114//156 115//156 111//156
f 112//157 116//157 114//157
f 113//158 111//158 115//158
f 119//165 121//165 120//165
f 120//166 121//166 125//166
f 125//161 123//161 122//161
f 122//162 123//162 119//162
f 120//158 124//158 122//158
f 121//157 119//157 123//157
